#N canvas 685 110 928 852 12;
#X obj 21 20 netreceive -b -u 12000;
#X obj 21 45 oscparse;
#X obj 21 70 list trim;
#X obj 48 145 route left right;
#X obj 102 180 unpack 0 0;
#X obj 21 204 unpack 0 0;
#X obj 162 211 print;
#X obj 21 116 print;
#X obj 429 116 route left right;
#X obj 429 370 clone singleton~ 21;
#X obj 429 224 listfunnel 0;
#X obj 503 312 print;
#X obj 429 500 dac~;
#X obj 579 379 clone singleton~ 21;
#X obj 579 233 listfunnel 0;
#X obj 579 491 dac~;
#X obj 429 399 *~ 0.1;
#X obj 579 408 *~ 0.1;
#X connect 0 0 1 0;
#X connect 1 0 2 0;
#X connect 2 0 8 0;
#X connect 3 0 5 0;
#X connect 3 1 4 0;
#X connect 4 1 6 0;
#X connect 8 0 14 0;
#X connect 8 1 10 0;
#X connect 9 0 16 0;
#X connect 10 0 9 0;
#X connect 13 0 17 0;
#X connect 14 0 13 0;
#X connect 16 0 12 0;
#X connect 17 0 15 1;
